<?xml version="1.0" encoding="UTF-8"?>
<svg width="511px" height="217px" viewBox="0 0 511 217" version="1.1" xmlns="http://www.w3.org/2000/svg" xmlns:xlink="http://www.w3.org/1999/xlink">
    <!-- Generator: Sketch 42 (36781) - http://www.bohemiancoding.com/sketch -->
    <title>Untitled</title>
    <desc>Created with Sketch.</desc>
    <defs></defs>
    <g id="Page-1" stroke="none" stroke-width="1" fill="none" fill-rule="evenodd">
        <path d="M39.7208196,124.66474 C39.1390405,121.448091 38.835,118.134701 38.835,114.75 C38.835,87.882 57.962,65.486 83.341,60.421 C84.5259223,56.9284761 87.3352768,54.1852814 90.872,53.1020917 L90.872,5.134 L132.706,5.134 L122.593,24.046 L132.706,42.958 L97.615,42.958 L97.615,53.1022743 C101.151253,54.1854425 103.960189,56.9280369 105.145,60.421 C130.524,65.486 149.651,87.881 149.651,114.75 C149.651,115.047429 149.648116,115.344109 149.642434,115.64005 C150.571952,115.530461 151.556433,115.471 152.601,115.471 C161.051,115.471 165.569,119.363 168.868,122.205 C169.288,122.567 169.672,122.897 170.038,123.2 L170.038,84.195 C170.038,80.469 172.984,77.524 176.709,77.524 L210.671,77.524 C214.05,77.524 216.735,80.209 216.735,83.587 C216.735,86.966 214.05,89.652 210.671,89.652 L183.38,89.652 L183.38,102.561 L206.773,102.561 C210.152,102.561 212.838,105.247 212.838,108.626 C212.838,112.005 210.152,114.69 206.773,114.69 L183.381,114.69 L183.381,132.018 C183.381,133.484 182.92,134.825 182.14,135.917 C180.948,138.114 178.622,139.605 175.948,139.605 C167.497,139.605 162.979,135.713 159.68,132.871 C157.112,130.659 155.824,129.549 152.601,129.549 C149.378,129.549 148.089,130.66 145.521,132.871 C142.222,135.713 137.704,139.605 129.253,139.605 C120.802,139.605 116.285,135.712 112.986,132.87 C110.419,130.659 109.131,129.549 105.909,129.549 C102.687,129.549 101.399,130.659 98.832,132.87 C95.534,135.712 91.016,139.605 82.566,139.605 C74.116,139.605 69.599,135.713 66.3,132.871 C63.733,130.659 62.445,129.549 59.223,129.549 C56,129.549 54.712,130.659 52.145,132.871 C48.846,135.713 44.329,139.605 35.879,139.605 C27.429,139.605 22.912,135.712 19.614,132.87 C17.048,130.659 15.76,129.549 12.539,129.549 C8.651,129.549 5.5,126.398 5.5,122.51 C5.5,118.622 8.651,115.471 12.539,115.471 C20.989,115.471 25.506,119.364 28.804,122.206 C31.371,124.417 32.659,125.527 35.879,125.527 C37.5196716,125.527 38.6588689,125.239184 39.7208196,124.66474 Z M129.253,149.661 C134.341,149.661 137.998,148.247 140.827,146.504 C125.439,175.928 93.333,196.767 62.07,205.954 L40.681,189.949 C54.382,183.747 68.295,173.852 72.86,165.875 C62.897,161.703 54.413,154.705 48.408,145.884 C49.846,144.901 51.063,143.858 52.144,142.927 C54.712,140.715 56,139.605 59.222,139.605 C62.444,139.605 63.732,140.714 66.299,142.927 C69.598,145.769 74.115,149.661 82.565,149.661 C91.015,149.661 95.532,145.768 98.831,142.926 C101.398,140.715 102.687,139.605 105.908,139.605 C109.131,139.605 110.419,140.715 112.986,142.926 C116.285,145.768 120.803,149.661 129.253,149.661 Z M170.038,156.852 C170.038,153.126 172.984,150.181 176.709,150.181 L194.816,150.181 C209.284,150.181 218.035,158.758 218.035,171.147 L218.035,171.32 C218.035,185.355 207.119,192.632 193.517,192.632 L183.38,192.632 L183.38,204.675 C183.38,208.4 180.435,211.346 176.709,211.346 C172.984,211.346 170.038,208.4 170.038,204.675 L170.038,156.852 L170.038,156.852 Z M220.376,187.868 L220.376,187.695 C220.376,174.353 231.119,163.524 245.587,163.524 C259.969,163.524 270.625,174.18 270.625,187.522 L270.625,187.695 C270.625,201.037 259.882,211.867 245.414,211.867 C231.032,211.866 220.376,201.21 220.376,187.868 Z M276.517,153.299 C276.517,149.487 279.723,147.147 283.881,147.147 C288.039,147.147 291.246,149.486 291.246,153.299 L291.246,153.472 C291.246,157.284 288.04,159.71 283.881,159.71 C279.722,159.71 276.517,157.284 276.517,153.472 L276.517,153.299 Z M277.297,170.453 C277.297,166.815 280.242,163.869 283.881,163.869 C287.52,163.869 290.465,166.815 290.465,170.453 L290.465,204.761 C290.465,208.4 287.52,211.346 283.881,211.346 C280.242,211.346 277.297,208.4 277.297,204.761 L277.297,170.453 Z M299.389,170.453 C299.389,166.815 302.334,163.869 305.973,163.869 C309.611,163.869 312.557,166.815 312.557,170.453 L312.557,170.973 C315.589,167.074 319.488,163.522 326.159,163.522 C336.122,163.522 341.926,170.106 341.926,180.762 L341.926,204.76 C341.926,208.399 338.981,211.345 335.342,211.345 C331.704,211.345 328.758,208.399 328.758,204.76 L328.758,184.92 C328.758,178.682 325.813,175.477 320.787,175.477 C315.762,175.477 312.557,178.683 312.557,184.92 L312.557,204.76 C312.557,208.399 309.611,211.345 305.973,211.345 C302.334,211.345 299.389,208.399 299.389,204.76 L299.389,170.453 Z M352.064,197.658 L352.064,175.652 L351.631,175.652 C348.512,175.652 346,173.139 346,170.021 C346,166.902 348.513,164.389 351.631,164.389 L352.064,164.389 L352.064,158.584 C352.064,154.945 355.009,152 358.648,152 C362.287,152 365.232,154.945 365.232,158.584 L365.232,164.389 L371.037,164.389 C374.156,164.389 376.668,166.902 376.668,170.021 C376.668,173.14 374.155,175.652 371.037,175.652 L365.232,175.652 L365.232,195.492 C365.232,198.524 366.532,199.997 369.477,199.997 C369.91,199.997 370.777,199.91 371.037,199.91 C373.982,199.91 376.495,202.336 376.495,205.368 C376.495,207.707 374.935,209.613 373.116,210.306 C370.69,211.26 368.437,211.606 365.579,211.606 C357.523,211.606 352.064,208.4 352.064,197.658 Z M229.212,74.405 C232.85,74.405 235.796,77.35 235.796,80.989 L235.796,132.104 C235.796,135.743 232.851,138.689 229.212,138.689 C225.573,138.689 222.628,135.743 222.628,132.104 L222.628,80.989 C222.628,77.35 225.573,74.405 229.212,74.405 Z M267.678,90.866 C282.06,90.866 292.716,101.522 292.716,114.864 L292.716,115.037 C292.716,128.38 281.973,139.209 267.505,139.209 C253.123,139.209 242.467,128.553 242.467,115.211 L242.467,115.038 C242.467,101.695 253.21,90.866 267.678,90.866 Z M319.747,91.212 C326.939,91.212 332.137,93.118 335.428,96.41 C338.893,99.875 340.453,104.986 340.453,111.224 L340.453,132.363 C340.453,135.915 337.593,138.688 334.041,138.688 C330.23,138.688 327.717,136.002 327.717,133.229 L327.717,133.143 C324.511,136.695 320.093,139.034 313.682,139.034 C304.932,139.034 297.741,134.01 297.741,124.826 L297.741,124.653 C297.741,114.517 305.452,109.839 316.455,109.839 C321.134,109.839 324.513,110.619 327.805,111.745 L327.805,110.965 C327.805,105.506 324.426,102.474 317.842,102.474 C314.203,102.474 311.258,102.994 308.745,103.774 C307.965,104.034 307.445,104.121 306.839,104.121 C303.807,104.121 301.381,101.782 301.381,98.75 C301.381,96.411 302.854,94.418 304.933,93.638 C309.091,92.079 313.596,91.212 319.747,91.212 Z M370.779,102.995 L364.975,102.995 L364.975,122.835 C364.975,125.867 366.274,127.34 369.22,127.34 C369.654,127.34 370.52,127.253 370.78,127.253 C373.725,127.253 376.238,129.679 376.238,132.711 C376.238,135.05 374.678,136.956 372.859,137.649 C370.433,138.603 368.181,138.949 365.322,138.949 C357.264,138.949 351.806,135.744 351.806,125.001 L351.806,102.995 L351.373,102.995 C348.255,102.995 345.742,100.483 345.742,97.364 C345.742,94.245 348.254,91.732 351.373,91.732 L351.806,91.732 L351.806,85.927 C351.806,82.288 354.751,79.343 358.39,79.343 C362.029,79.343 364.974,82.288 364.974,85.927 L364.974,91.732 L370.779,91.732 C373.897,91.732 376.41,94.245 376.41,97.364 C376.41,100.482 373.898,102.995 370.779,102.995 Z M391.052,91.212 C394.691,91.212 397.636,94.158 397.636,97.796 L397.636,132.104 C397.636,135.743 394.691,138.689 391.052,138.689 C387.413,138.689 384.468,135.743 384.468,132.104 L384.468,97.796 C384.468,94.158 387.413,91.212 391.052,91.212 Z M391.052,74.491 C395.21,74.491 398.416,76.83 398.417,80.643 L398.417,80.816 C398.417,84.628 395.21,87.054 391.052,87.054 C386.894,87.054 383.688,84.628 383.688,80.816 L383.688,80.643 C383.688,76.83 386.894,74.491 391.052,74.491 Z M435.063,90.866 C445.026,90.866 450.831,97.45 450.83,108.107 L450.83,132.105 C450.83,135.744 447.885,138.69 444.246,138.69 C440.608,138.69 437.662,135.744 437.662,132.105 L437.662,112.265 C437.662,106.027 434.716,102.822 429.691,102.822 C424.666,102.822 421.461,106.027 421.461,112.265 L421.461,132.105 C421.461,135.744 418.515,138.69 414.877,138.69 C411.238,138.69 408.293,135.744 408.293,132.105 L408.293,97.797 C408.293,94.159 411.238,91.213 414.877,91.213 C418.515,91.213 421.461,94.159 421.461,97.797 L421.461,98.317 C424.493,94.418 428.392,90.866 435.063,90.866 Z M498.916,91.212 C502.554,91.212 505.5,94.158 505.501,97.796 L505.501,127.686 C505.501,136.004 503.507,142.068 499.609,145.967 C495.277,150.298 488.606,152.204 479.596,152.204 C473.444,152.204 468.073,151.165 462.615,148.999 C460.362,148.133 458.89,146.314 458.89,143.888 C458.89,140.943 461.315,138.517 464.261,138.517 C465.127,138.517 465.82,138.691 466.427,138.95 C470.239,140.683 474.311,141.723 479.249,141.723 C488.259,141.723 492.504,137.392 492.504,129.074 L492.504,126.821 C488.606,131.499 484.361,134.358 477.343,134.358 C466.514,134.358 456.724,126.475 456.724,112.699 L456.724,112.526 C456.724,98.664 466.687,90.867 477.343,90.867 C484.534,90.867 488.779,93.899 492.331,97.797 L492.331,97.71 C492.331,94.158 495.277,91.212 498.916,91.212 Z" id="Outline" stroke="#FFFFFF" stroke-width="10" fill="#FFFFFF" fill-rule="nonzero"></path>
        <g id="fp_logo" transform="translate(5.000000, 5.000000)" fill-rule="nonzero">
            <polygon id="Shape" fill="#E74C3C" points="85.872 0.134 85.872 53.211 92.615 53.211 92.615 37.958 127.706 37.958 117.593 19.046 127.706 0.134"></polygon>
            <path d="M100.145,55.421 C98.603,50.875 94.31,47.6 89.243,47.6 C84.176,47.6 79.883,50.876 78.341,55.421 C52.962,60.486 33.835,82.882 33.835,109.75 C33.835,116.188 34.935,122.368 36.954,128.115 C37.27,127.85 37.599,127.569 37.956,127.262 C41.255,124.42 45.772,120.527 54.222,120.527 C62.672,120.527 67.19,124.42 70.488,127.262 C73.055,129.474 74.343,130.583 77.565,130.583 C80.787,130.583 82.076,129.473 84.643,127.261 C87.942,124.419 92.459,120.527 100.909,120.527 C109.359,120.527 113.876,124.419 117.175,127.261 C119.742,129.474 121.031,130.583 124.253,130.583 C127.476,130.583 128.765,129.472 131.333,127.261 C134.037,124.931 137.564,121.9 143.401,120.882 C144.173,117.284 144.651,113.579 144.651,109.75 C144.651,82.881 125.524,60.486 100.145,55.421 Z M89.243,63.891 C86.607,63.891 84.471,61.754 84.471,59.119 C84.471,56.484 86.608,54.347 89.243,54.347 C91.879,54.347 94.015,56.484 94.015,59.119 C94.015,61.754 91.879,63.891 89.243,63.891 Z" id="Shape" fill="#2980B9"></path>
            <path d="M124.253,144.661 C115.803,144.661 111.285,140.768 107.986,137.926 C105.419,135.715 104.131,134.605 100.908,134.605 C97.687,134.605 96.398,135.715 93.831,137.926 C90.532,140.768 86.015,144.661 77.565,144.661 C69.115,144.661 64.598,140.769 61.299,137.927 C58.732,135.714 57.444,134.605 54.222,134.605 C51,134.605 49.712,135.715 47.144,137.927 C46.063,138.858 44.846,139.901 43.408,140.884 C49.413,149.705 57.897,156.703 67.86,160.875 C63.295,168.852 49.382,178.747 35.681,184.949 L57.07,200.954 C88.333,191.767 120.439,170.928 135.827,141.504 C132.998,143.247 129.341,144.661 124.253,144.661 Z" id="Shape" fill="#2C3E50"></path>
            <path d="M165.038,151.852 C165.038,148.126 167.984,145.181 171.709,145.181 L189.816,145.181 C204.284,145.181 213.035,153.758 213.035,166.147 L213.035,166.32 C213.035,180.355 202.119,187.632 188.517,187.632 L178.38,187.632 L178.38,199.675 C178.38,203.4 175.435,206.346 171.709,206.346 C167.984,206.346 165.038,203.4 165.038,199.675 L165.038,151.852 L165.038,151.852 Z M188.95,175.763 C195.621,175.763 199.519,171.778 199.519,166.579 L199.519,166.406 C199.519,160.428 195.361,157.222 188.69,157.222 L178.38,157.222 L178.38,175.762 L188.95,175.762 L188.95,175.763 Z" id="Shape" fill="#2C3E50"></path>
            <path d="M215.376,182.868 L215.376,182.695 C215.376,169.353 226.119,158.524 240.587,158.524 C254.969,158.524 265.625,169.18 265.625,182.522 L265.625,182.695 C265.625,196.037 254.882,206.867 240.414,206.867 C226.032,206.866 215.376,196.21 215.376,182.868 Z M252.63,182.868 L252.63,182.695 C252.63,175.851 247.692,169.872 240.414,169.872 C232.877,169.872 228.372,175.677 228.372,182.521 L228.372,182.694 C228.372,189.538 233.311,195.516 240.588,195.516 C248.124,195.516 252.63,189.712 252.63,182.868 Z" id="Shape" fill="#2C3E50"></path>
            <path d="M271.517,148.299 C271.517,144.487 274.723,142.147 278.881,142.147 C283.039,142.147 286.246,144.486 286.246,148.299 L286.246,148.472 C286.246,152.284 283.04,154.71 278.881,154.71 C274.722,154.71 271.517,152.284 271.517,148.472 L271.517,148.299 Z M272.297,165.453 C272.297,161.815 275.242,158.869 278.881,158.869 C282.52,158.869 285.465,161.815 285.465,165.453 L285.465,199.761 C285.465,203.4 282.52,206.346 278.881,206.346 C275.242,206.346 272.297,203.4 272.297,199.761 L272.297,165.453 Z" id="Shape" fill="#2C3E50"></path>
            <path d="M294.389,165.453 C294.389,161.815 297.334,158.869 300.973,158.869 C304.611,158.869 307.557,161.815 307.557,165.453 L307.557,165.973 C310.589,162.074 314.488,158.522 321.159,158.522 C331.122,158.522 336.926,165.106 336.926,175.762 L336.926,199.76 C336.926,203.399 333.981,206.345 330.342,206.345 C326.704,206.345 323.758,203.399 323.758,199.76 L323.758,179.92 C323.758,173.682 320.813,170.477 315.787,170.477 C310.762,170.477 307.557,173.683 307.557,179.92 L307.557,199.76 C307.557,203.399 304.611,206.345 300.973,206.345 C297.334,206.345 294.389,203.399 294.389,199.76 L294.389,165.453 Z" id="Shape" fill="#2C3E50"></path>
            <path d="M347.064,192.658 L347.064,170.652 L346.631,170.652 C343.512,170.652 341,168.139 341,165.021 C341,161.902 343.513,159.389 346.631,159.389 L347.064,159.389 L347.064,153.584 C347.064,149.945 350.009,147 353.648,147 C357.287,147 360.232,149.945 360.232,153.584 L360.232,159.389 L366.037,159.389 C369.156,159.389 371.668,161.902 371.668,165.021 C371.668,168.14 369.155,170.652 366.037,170.652 L360.232,170.652 L360.232,190.492 C360.232,193.524 361.532,194.997 364.477,194.997 C364.91,194.997 365.777,194.91 366.037,194.91 C368.982,194.91 371.495,197.336 371.495,200.368 C371.495,202.707 369.935,204.613 368.116,205.306 C365.69,206.26 363.437,206.606 360.579,206.606 C352.523,206.606 347.064,203.4 347.064,192.658 Z" id="Shape" fill="#2C3E50"></path>
            <path d="M205.671,72.524 L171.709,72.524 C167.984,72.524 165.038,75.469 165.038,79.195 L165.038,118.2 C164.672,117.897 164.288,117.567 163.868,117.205 C160.569,114.363 156.051,110.471 147.601,110.471 C139.15,110.471 134.632,114.363 131.333,117.205 C128.765,119.417 127.476,120.527 124.253,120.527 C121.031,120.527 119.742,119.417 117.175,117.205 C113.876,114.363 109.359,110.471 100.909,110.471 C92.459,110.471 87.942,114.363 84.643,117.205 C82.076,119.418 80.788,120.527 77.565,120.527 C74.344,120.527 73.055,119.417 70.488,117.206 C67.189,114.364 62.672,110.471 54.222,110.471 C45.772,110.471 41.254,114.364 37.956,117.206 C35.389,119.417 34.101,120.527 30.879,120.527 C27.659,120.527 26.371,119.417 23.804,117.206 C20.506,114.364 15.989,110.471 7.539,110.471 C3.651,110.471 0.5,113.622 0.5,117.51 C0.5,121.398 3.651,124.549 7.539,124.549 C10.76,124.549 12.048,125.659 14.614,127.87 C17.912,130.712 22.429,134.605 30.879,134.605 C39.329,134.605 43.846,130.713 47.145,127.871 C49.712,125.659 51,124.549 54.223,124.549 C57.445,124.549 58.733,125.659 61.3,127.871 C64.599,130.713 69.116,134.605 77.566,134.605 C86.016,134.605 90.534,130.712 93.832,127.87 C96.399,125.659 97.687,124.549 100.909,124.549 C104.131,124.549 105.419,125.659 107.986,127.87 C111.285,130.712 115.802,134.605 124.253,134.605 C132.704,134.605 137.222,130.713 140.521,127.871 C143.089,125.66 144.378,124.549 147.601,124.549 C150.824,124.549 152.112,125.659 154.68,127.871 C157.979,130.713 162.497,134.605 170.948,134.605 C173.622,134.605 175.948,133.114 177.14,130.917 C177.92,129.825 178.381,128.484 178.381,127.018 L178.381,109.69 L201.773,109.69 C205.152,109.69 207.838,107.005 207.838,103.626 C207.838,100.247 205.152,97.561 201.773,97.561 L178.38,97.561 L178.38,84.652 L205.671,84.652 C209.05,84.652 211.735,81.966 211.735,78.587 C211.735,75.209 209.05,72.524 205.671,72.524 Z" id="Shape" fill="#5CB4E5"></path>
            <path d="M224.212,69.405 C220.573,69.405 217.628,72.35 217.628,75.989 L217.628,127.104 C217.628,130.743 220.573,133.689 224.212,133.689 C227.851,133.689 230.796,130.743 230.796,127.104 L230.796,75.989 C230.796,72.35 227.85,69.405 224.212,69.405 Z" id="Shape" fill="#5CB4E5"></path>
            <path d="M262.678,85.866 C248.21,85.866 237.467,96.695 237.467,110.038 L237.467,110.211 C237.467,123.553 248.123,134.209 262.505,134.209 C276.973,134.209 287.716,123.38 287.716,110.037 L287.716,109.864 C287.716,96.522 277.06,85.866 262.678,85.866 Z M274.72,110.211 C274.72,117.055 270.215,122.86 262.678,122.86 C255.401,122.86 250.462,116.882 250.462,110.038 L250.462,109.865 C250.462,103.021 254.967,97.216 262.504,97.216 C269.782,97.216 274.72,103.194 274.72,110.039 L274.72,110.211 Z" id="Shape" fill="#5CB4E5"></path>
            <path d="M314.747,86.212 C308.596,86.212 304.091,87.079 299.933,88.638 C297.854,89.418 296.381,91.411 296.381,93.75 C296.381,96.782 298.807,99.121 301.839,99.121 C302.445,99.121 302.965,99.034 303.745,98.774 C306.258,97.994 309.203,97.474 312.842,97.474 C319.426,97.474 322.805,100.506 322.805,105.965 L322.805,106.745 C319.513,105.619 316.134,104.839 311.455,104.839 C300.452,104.839 292.741,109.517 292.741,119.653 L292.741,119.826 C292.741,129.01 299.932,134.034 308.682,134.034 C315.093,134.034 319.511,131.695 322.717,128.143 L322.717,128.229 C322.717,131.002 325.23,133.688 329.041,133.688 C332.593,133.688 335.453,130.915 335.453,127.363 L335.453,106.224 C335.453,99.986 333.893,94.875 330.428,91.41 C327.137,88.118 321.939,86.212 314.747,86.212 Z M322.978,116.795 C322.978,121.56 318.82,124.938 312.668,124.938 C308.423,124.938 305.478,122.859 305.478,119.306 L305.478,119.133 C305.478,114.974 308.944,112.721 314.574,112.721 C317.78,112.721 320.726,113.414 322.978,114.454 L322.978,116.795 Z" id="Shape" fill="#5CB4E5"></path>
            <path d="M365.779,97.995 C368.898,97.995 371.41,95.482 371.41,92.364 C371.41,89.245 368.897,86.732 365.779,86.732 L359.974,86.732 L359.974,80.927 C359.974,77.288 357.029,74.343 353.39,74.343 C349.751,74.343 346.806,77.288 346.806,80.927 L346.806,86.732 L346.373,86.732 C343.254,86.732 340.742,89.245 340.742,92.364 C340.742,95.483 343.255,97.995 346.373,97.995 L346.806,97.995 L346.806,120.001 C346.806,130.744 352.264,133.949 360.322,133.949 C363.181,133.949 365.433,133.603 367.859,132.649 C369.678,131.956 371.238,130.05 371.238,127.711 C371.238,124.679 368.725,122.253 365.78,122.253 C365.52,122.253 364.654,122.34 364.22,122.34 C361.274,122.34 359.975,120.867 359.975,117.835 L359.975,97.995 L365.779,97.995 Z" id="Shape" fill="#5CB4E5"></path>
            <path d="M386.052,86.212 C382.413,86.212 379.468,89.158 379.468,92.796 L379.468,127.104 C379.468,130.743 382.413,133.689 386.052,133.689 C389.691,133.689 392.636,130.743 392.636,127.104 L392.636,92.796 C392.636,89.158 389.691,86.212 386.052,86.212 Z" id="Shape" fill="#5CB4E5"></path>
            <path d="M386.052,69.491 C381.894,69.491 378.688,71.83 378.688,75.643 L378.688,75.816 C378.688,79.628 381.894,82.054 386.052,82.054 C390.21,82.054 393.417,79.628 393.417,75.816 L393.417,75.643 C393.416,71.83 390.21,69.491 386.052,69.491 Z" id="Shape" fill="#5CB4E5"></path>
            <path d="M430.063,85.866 C423.392,85.866 419.493,89.418 416.461,93.317 L416.461,92.797 C416.461,89.159 413.515,86.213 409.877,86.213 C406.238,86.213 403.293,89.159 403.293,92.797 L403.293,127.105 C403.293,130.744 406.238,133.69 409.877,133.69 C413.515,133.69 416.461,130.744 416.461,127.105 L416.461,107.265 C416.461,101.027 419.666,97.822 424.691,97.822 C429.716,97.822 432.662,101.027 432.662,107.265 L432.662,127.105 C432.662,130.744 435.608,133.69 439.246,133.69 C442.885,133.69 445.83,130.744 445.83,127.105 L445.83,103.107 C445.831,92.45 440.026,85.866 430.063,85.866 Z" id="Shape" fill="#5CB4E5"></path>
            <path d="M493.916,86.212 C490.277,86.212 487.331,89.158 487.331,92.71 L487.331,92.797 C483.779,88.899 479.534,85.867 472.343,85.867 C461.687,85.867 451.724,93.664 451.724,107.526 L451.724,107.699 C451.724,121.475 461.514,129.358 472.343,129.358 C479.361,129.358 483.606,126.499 487.504,121.821 L487.504,124.074 C487.504,132.392 483.259,136.723 474.249,136.723 C469.311,136.723 465.239,135.683 461.427,133.95 C460.82,133.691 460.127,133.517 459.261,133.517 C456.315,133.517 453.89,135.943 453.89,138.888 C453.89,141.314 455.362,143.133 457.615,143.999 C463.073,146.165 468.444,147.204 474.596,147.204 C483.606,147.204 490.277,145.298 494.609,140.967 C498.507,137.068 500.501,131.004 500.501,122.686 L500.501,92.796 C500.5,89.158 497.554,86.212 493.916,86.212 Z M487.504,107.698 C487.504,114.022 482.566,118.441 476.155,118.441 C469.743,118.441 464.892,114.109 464.892,107.698 L464.892,107.525 C464.892,101.201 469.743,96.782 476.155,96.782 C482.566,96.782 487.504,101.2 487.504,107.525 L487.504,107.698 Z" id="Shape" fill="#5CB4E5"></path>
        </g>
    </g>
</svg>